<svg width="27" height="27" viewBox="0 0 27 27" fill="none" xmlns="http://www.w3.org/2000/svg">
<rect width="26.3646" height="26.3646" transform="translate(0.182373 0.591141)" fill="black"/>
<path d="M25.7229 14.1854C25.723 13.0939 25.4134 12.0249 24.83 11.1024C24.2466 10.18 23.4135 9.44201 22.4274 8.97425V8.00618C22.4266 6.94452 22.0841 5.91131 21.4506 5.05944C20.817 4.20757 19.926 3.5823 18.9094 3.27618C17.8928 2.97005 16.8047 2.99934 15.8061 3.35969C14.8075 3.72004 13.9514 4.39232 13.3645 5.27703C12.7777 4.39232 11.9216 3.72004 10.923 3.35969C9.92435 2.99934 8.83624 2.97005 7.81968 3.27618C6.80311 3.5823 5.91211 4.20757 5.27853 5.05944C4.64494 5.91131 4.30245 6.94452 4.30172 8.00618V8.97425C3.31545 9.4419 2.48214 10.1798 1.89863 11.1023C1.31512 12.0247 1.00537 13.0939 1.00537 14.1854C1.00537 15.2769 1.31512 16.346 1.89863 17.2685C2.48214 18.1909 3.31545 18.9289 4.30172 19.3965V19.5407C4.30245 20.6023 4.64494 21.6355 5.27853 22.4874C5.91211 23.3393 6.80311 23.9646 7.81968 24.2707C8.83624 24.5768 9.92435 24.5475 10.923 24.1872C11.9216 23.8268 12.7777 23.1545 13.3645 22.2698C13.9514 23.1545 14.8075 23.8268 15.8061 24.1872C16.8047 24.5475 17.8928 24.5768 18.9094 24.2707C19.926 23.9646 20.817 23.3393 21.4506 22.4874C22.0841 21.6355 22.4266 20.6023 22.4274 19.5407V19.3965C23.4127 18.9277 24.2452 18.1895 24.8284 17.2673C25.4116 16.3451 25.7218 15.2765 25.7229 14.1854V14.1854ZM9.24507 22.8363C8.43199 22.8358 7.64779 22.5347 7.04325 21.991C6.4387 21.4473 6.05649 20.6993 5.9701 19.8908C6.23581 19.9327 6.50442 19.9533 6.77339 19.9526H7.59729C7.8158 19.9526 8.02536 19.8658 8.17987 19.7113C8.33438 19.5568 8.42118 19.3472 8.42118 19.1287C8.42118 18.9102 8.33438 18.7007 8.17987 18.5462C8.02536 18.3916 7.8158 18.3048 7.59729 18.3048H6.77339C5.80256 18.3032 4.8635 17.9587 4.1219 17.3322C3.38029 16.7056 2.88379 15.8373 2.72 14.8804C2.5562 13.9235 2.73563 12.9395 3.22663 12.1019C3.71764 11.2644 4.48866 10.6272 5.40367 10.3028C5.56378 10.2438 5.70195 10.1371 5.79955 9.99718C5.89715 9.85723 5.94949 9.69071 5.9495 9.52008V8.00618C5.9495 7.13214 6.29671 6.2939 6.91475 5.67586C7.53279 5.05782 8.37103 4.71061 9.24507 4.71061C10.1191 4.71061 10.9574 5.05782 11.5754 5.67586C12.1934 6.2939 12.5406 7.13214 12.5406 8.00618V15.8641C11.6386 15.0454 10.4632 14.5936 9.24507 14.5973C9.02656 14.5973 8.817 14.6841 8.66249 14.8386C8.50798 14.9931 8.42118 15.2027 8.42118 15.4212C8.42118 15.6397 8.50798 15.8493 8.66249 16.0038C8.817 16.1583 9.02656 16.2451 9.24507 16.2451C10.1191 16.2451 10.9574 16.5923 11.5754 17.2104C12.1934 17.8284 12.5406 18.6666 12.5406 19.5407C12.5406 20.4147 12.1934 21.253 11.5754 21.871C10.9574 22.489 10.1191 22.8363 9.24507 22.8363ZM19.9557 18.3048H19.1318C18.9133 18.3048 18.7037 18.3916 18.5492 18.5462C18.3947 18.7007 18.3079 18.9102 18.3079 19.1287C18.3079 19.3472 18.3947 19.5568 18.5492 19.7113C18.7037 19.8658 18.9133 19.9526 19.1318 19.9526H19.9557C20.2247 19.9533 20.4933 19.9327 20.759 19.8908C20.6913 20.5242 20.4415 21.1243 20.0399 21.6187C19.6383 22.1131 19.102 22.4805 18.4959 22.6764C17.8899 22.8724 17.24 22.8885 16.625 22.7228C16.0099 22.5572 15.4561 22.2168 15.0304 21.743C14.6048 21.2692 14.3255 20.6821 14.2265 20.0529C14.1275 19.4237 14.213 18.7793 14.4726 18.1976C14.7322 17.616 15.1547 17.122 15.6892 16.7755C16.2236 16.4289 16.8471 16.2447 17.484 16.2451C17.7025 16.2451 17.9121 16.1583 18.0666 16.0038C18.2211 15.8493 18.3079 15.6397 18.3079 15.4212C18.3079 15.2027 18.2211 14.9931 18.0666 14.8386C17.9121 14.6841 17.7025 14.5973 17.484 14.5973C16.2659 14.5936 15.0904 15.0454 14.1884 15.8641V8.00618C14.1884 7.13214 14.5356 6.2939 15.1537 5.67586C15.7717 5.05782 16.61 4.71061 17.484 4.71061C18.358 4.71061 19.1963 5.05782 19.8143 5.67586C20.4324 6.2939 20.7796 7.13214 20.7796 8.00618V9.52008C20.7796 9.69071 20.8319 9.85723 20.9295 9.99718C21.0271 10.1371 21.1653 10.2438 21.3254 10.3028C22.2404 10.6272 23.0114 11.2644 23.5024 12.1019C23.9934 12.9395 24.1729 13.9235 24.0091 14.8804C23.8453 15.8373 23.3488 16.7056 22.6072 17.3322C21.8656 17.9587 20.9265 18.3032 19.9557 18.3048V18.3048ZM6.36145 13.7734C6.14294 13.7734 5.93338 13.6866 5.77887 13.5321C5.62436 13.3776 5.53756 13.168 5.53756 12.9495C5.53756 12.731 5.62436 12.5215 5.77887 12.367C5.93338 12.2124 6.14294 12.1256 6.36145 12.1256C6.90689 12.1229 7.42922 11.9051 7.81491 11.5194C8.2006 11.1337 8.41847 10.6114 8.42118 10.0659V9.24202C8.42118 9.02351 8.50798 8.81395 8.66249 8.65944C8.817 8.50493 9.02656 8.41812 9.24507 8.41812C9.46358 8.41812 9.67314 8.50493 9.82765 8.65944C9.98216 8.81395 10.069 9.02351 10.069 9.24202V10.0659C10.069 11.0492 9.67835 11.9922 8.98306 12.6875C8.28777 13.3828 7.34474 13.7734 6.36145 13.7734V13.7734ZM21.1915 12.9495C21.1915 13.168 21.1047 13.3776 20.9502 13.5321C20.7957 13.6866 20.5861 13.7734 20.3676 13.7734C19.3843 13.7734 18.4413 13.3828 17.746 12.6875C17.0507 11.9922 16.6601 11.0492 16.6601 10.0659V9.24202C16.6601 9.02351 16.7469 8.81395 16.9014 8.65944C17.0559 8.50493 17.2655 8.41812 17.484 8.41812C17.7025 8.41812 17.9121 8.50493 18.0666 8.65944C18.2211 8.81395 18.3079 9.02351 18.3079 9.24202V10.0659C18.3106 10.6114 18.5285 11.1337 18.9142 11.5194C19.2999 11.9051 19.8222 12.1229 20.3676 12.1256C20.5861 12.1256 20.7957 12.2124 20.9502 12.367C21.1047 12.5215 21.1915 12.731 21.1915 12.9495Z" fill="#E97B7B"/>
</svg>
